<?xml version="1.0" encoding="UTF-8"?>
<svg width="299px" height="47px" viewBox="0 0 299 47" version="1.1" xmlns="http://www.w3.org/2000/svg" xmlns:xlink="http://www.w3.org/1999/xlink">
    <title>AD3B0CAF-6BD3-401F-948A-8016F819546F@2x</title>
    <defs>
        <linearGradient x1="50%" y1="0%" x2="50%" y2="100%" id="linearGradient-1">
            <stop stop-color="#83DD9D" offset="0%"></stop>
            <stop stop-color="#4CB964" offset="100%"></stop>
        </linearGradient>
    </defs>
    <g id="Desktop" stroke="none" stroke-width="1" fill="none" fill-rule="evenodd">
        <g id="Style-Tile" transform="translate(-235.000000, -65.000000)">
            <g id="Logo" transform="translate(105.000000, 65.000000)">
                <g id="logo-horizontal" transform="translate(130.000000, 0.000000)">
                    <path d="M23.5,0.5 C36.4786916,0.5 47,11.1406975 47,24.266663 C47,31.1810595 44.0804508,37.405821 39.4200858,41.7488387 L39.4193775,44.1999989 C39.4193775,45.4702537 38.4011864,46.5 37.145184,46.5 L9.85483871,46.5 C8.59883629,46.5 7.58064516,45.4702551 7.58064516,44.1999996 L7.57991421,41.7488387 C2.91954917,37.405821 0,31.1810595 0,24.266663 C0,11.1406975 10.5213084,0.5 23.5,0.5 Z M27.2255002,16.273682 C27.2680638,16.5036564 27.2903226,16.7408647 27.2903226,16.9833308 C27.2903226,19.100422 25.5933374,20.8166635 23.5,20.8166635 C21.4066626,20.8166635 19.7096774,19.100422 19.7096774,16.9833308 C19.7096774,16.7408647 19.7319362,16.5036564 19.7744998,16.273682 L9.51584372,21.4619218 C9.2590238,21.5917889 9.09677419,21.8572569 9.09677419,22.1476485 L9.09677419,44.2000004 C9.09677419,44.6234186 9.43617124,44.9666669 9.85483867,44.9666669 L12.1286452,44.9666502 L12.1290323,24.266663 C12.1290323,22.9964082 13.1472234,21.9666633 14.4032258,21.9666633 L32.5967742,21.9666633 C33.8527766,21.9666633 34.8709677,22.9964082 34.8709677,24.266663 L34.8706452,44.9666502 L37.1451839,44.9666669 C37.5638514,44.9666669 37.9032485,44.6234172 37.9032485,44.1999989 L37.9032485,22.1476487 C37.9032485,21.8572569 37.7410208,21.5917885 37.4842007,21.4619213 L27.2255002,16.273682 Z M32.5967742,23.4999964 L14.4032258,23.4999964 C13.9845583,23.4999964 13.6451613,23.8432447 13.6451613,24.266663 L13.6446452,26.5666502 L20.4677419,26.5666626 C20.8864094,26.5666626 21.2258065,26.909911 21.2258065,27.3333293 C21.2258065,27.7567476 20.8864094,28.0999959 20.4677419,28.0999959 L13.6446452,28.0996502 L13.6446452,31.1666502 L17.4354839,31.1666619 C17.8541513,31.1666619 18.1935484,31.5099103 18.1935484,31.9333286 C18.1935484,32.3567469 17.8541513,32.6999952 17.4354839,32.6999952 L13.6446452,32.6996502 L13.6446452,35.7666502 L26.5322581,35.7666612 C26.9509255,35.7666612 27.2903226,36.1099095 27.2903226,36.5333278 C27.2903226,36.9567462 26.9509255,37.2999945 26.5322581,37.2999945 L13.6446452,37.2996502 L13.6446452,40.3666502 L20.4677419,40.3666605 C20.8864094,40.3666605 21.2258065,40.7099088 21.2258065,41.1333271 C21.2258065,41.5567454 20.8864094,41.8999938 20.4677419,41.8999938 L13.6446452,41.8996502 L13.6451613,44.9666597 L33.3548387,44.9666597 L33.3546452,41.8996502 L23.5,41.8999938 C23.0813325,41.8999938 22.7419355,41.5567454 22.7419355,41.1333271 C22.7419355,40.7099088 23.0813325,40.3666605 23.5,40.3666605 L33.3546452,40.3666502 L33.3546452,37.2996502 L29.5645161,37.2999945 C29.1458487,37.2999945 28.8064516,36.9567462 28.8064516,36.5333278 C28.8064516,36.1099095 29.1458487,35.7666612 29.5645161,35.7666612 L33.3546452,35.7666502 L33.3546452,32.6996502 L20.4677419,32.6999952 C20.0490745,32.6999952 19.7096774,32.3567469 19.7096774,31.9333286 C19.7096774,31.5099103 20.0490745,31.1666619 20.4677419,31.1666619 L33.3546452,31.1666502 L33.3546452,28.0996502 L23.5,28.0999959 C23.0813325,28.0999959 22.7419355,27.7567476 22.7419355,27.3333293 C22.7419355,26.909911 23.0813325,26.5666626 23.5,26.5666626 L33.3546452,26.5666502 L33.3548387,24.266663 C33.3548387,23.8432447 33.0154417,23.4999964 32.5967742,23.4999964 Z M23.5,2.03333309 C11.3586433,2.03333309 1.51612903,11.9875339 1.51612903,24.266663 C1.51612903,30.2107494 3.82256372,35.6100264 7.57970568,39.5990562 L7.58064516,22.147647 C7.58064516,21.2764722 8.06735044,20.4800682 8.83781021,20.090467 L22.4829724,13.1904676 C23.1232204,12.866711 23.8768249,12.866711 24.5170729,13.1904676 L38.1622342,20.0904665 C38.9326947,20.4800681 39.4193775,21.2764731 39.4193775,22.1476487 L39.4202943,39.5990562 C43.1774363,35.6100264 45.483871,30.2107494 45.483871,24.266663 C45.483871,11.9875339 35.6413567,2.03333309 23.5,2.03333309 Z M23.5,14.6833311 C22.2439976,14.6833311 21.2258065,15.713076 21.2258065,16.9833308 C21.2258065,18.2535855 22.2439976,19.2833304 23.5,19.2833304 C24.7560024,19.2833304 25.7741935,18.2535855 25.7741935,16.9833308 C25.7741935,15.713076 24.7560024,14.6833311 23.5,14.6833311 Z" id="Combined-Shape" fill="url(#linearGradient-1)" fill-rule="nonzero"></path>
                    <path d="M57.3525575,30.0593386 C57.6754592,30.428369 58.0387181,30.80316 58.4423452,31.1837227 C58.8459723,31.5642853 59.3014874,31.9044802 59.8089043,32.2043175 C60.3163212,32.5041547 60.8813907,32.7463273 61.5041296,32.9308426 C62.1268685,33.1153578 62.8072583,33.2076141 63.5453192,33.2076141 C65.0675699,33.2076141 66.2553689,32.8616532 67.1087519,32.169721 C67.9621349,31.4777889 68.38882,30.5436945 68.38882,29.3674099 C68.38882,28.0988676 67.9044747,27.1474752 66.9357697,26.5132041 C65.9670647,25.8789329 64.5716892,25.3657576 62.7496012,24.9736628 C61.7578318,24.7660831 60.8583335,24.4777824 60.0510794,24.1087519 C59.2438252,23.7397214 58.5461374,23.2784403 57.9579951,22.7248945 C57.3698528,22.1713488 56.9143376,21.5313212 56.591436,20.8047925 C56.2685343,20.0782637 56.1070859,19.2537236 56.1070859,18.3311474 C56.1070859,17.4777645 56.2685343,16.6705224 56.591436,15.909397 C56.9143376,15.1482717 57.3986829,14.479414 58.0444862,13.9028039 C58.6902895,13.3261938 59.4975316,12.8649126 60.4662366,12.5189465 C61.4349416,12.1729804 62.5535484,12 63.8220907,12 C64.9522465,12 65.926703,12.1210863 66.7454893,12.3632626 C67.5642757,12.6054388 68.2619635,12.8995056 68.8385736,13.2454716 C69.4151837,13.5914377 69.8764649,13.9489306 70.222431,14.3179611 C70.568397,14.6869916 70.8336337,14.9868243 71.0181489,15.2174684 L68.8039772,17.258658 C68.6655907,17.0972071 68.4580142,16.8838646 68.1812414,16.6186239 C67.9044685,16.3533833 67.5527416,16.0939126 67.1260501,15.8402042 C66.6993586,15.5864957 66.2034814,15.3731532 65.6384035,15.2001701 C65.0733255,15.0271871 64.4217659,14.9406969 63.6837049,14.9406969 C62.945644,14.9406969 62.3113824,15.0387191 61.7809011,15.2347666 C61.2504198,15.430814 60.8122026,15.6845187 60.4662366,15.9958881 C60.1202705,16.3072576 59.8665659,16.6589845 59.705115,17.0510794 C59.5436642,17.4431742 59.46294,17.8352632 59.46294,18.2273581 C59.46294,18.8039682 59.5840263,19.2940795 59.8262025,19.6977066 C60.0683788,20.1013336 60.4201057,20.4588266 60.8813938,20.770196 C61.3426819,21.0815655 61.9135173,21.3468022 62.5939173,21.565914 C63.2743172,21.7850258 64.0527292,21.9983684 64.9291766,22.205948 C65.7825595,22.4135277 66.6186317,22.6845304 67.437418,23.0189642 C68.2562044,23.3533981 68.9884883,23.8031472 69.6342916,24.3682252 C70.2800949,24.9333031 70.7932702,25.6252248 71.1738329,26.4440112 C71.5543956,27.2627976 71.7446741,28.2603181 71.7446741,29.4366027 C71.7446741,30.4283721 71.5370975,31.3394025 71.1219383,32.169721 C70.706779,33.0000396 70.1359435,33.7207914 69.4094148,34.3319982 C68.682886,34.9432049 67.8237498,35.4160181 66.8319804,35.750452 C65.840211,36.0848858 64.7677323,36.2521002 63.6145121,36.2521002 C62.5304851,36.2521002 61.5444965,36.1252479 60.656517,35.8715395 C59.7685374,35.617831 58.9612953,35.2949342 58.2347666,34.9028393 C57.5082378,34.5107444 56.8739762,34.0782933 56.3319627,33.605473 C55.7899492,33.1326527 55.3459661,32.6656056 55,32.2043175 L57.3525575,30.0593386 Z M76.3027542,22.1713516 L73.3966538,22.1713516 L73.3966538,19.576619 L76.3027542,19.576619 L76.3027542,14.3179611 L79.4164333,14.3179611 L79.4164333,19.576619 L84.1215483,19.576619 L84.1215483,22.1713516 L79.4164333,22.1713516 L79.4164333,30.093935 C79.4164333,31.3855417 79.6182438,32.2735079 80.0218709,32.7578604 C80.425498,33.2422129 80.9963334,33.4843855 81.7343944,33.4843855 C82.3340689,33.4843855 82.8299462,33.3921293 83.222041,33.2076141 C83.6141359,33.0230988 84.0062249,32.7463301 84.3983198,32.3772996 L85.8167736,34.2801035 C85.1479059,34.9259068 84.4617501,35.392954 83.7582858,35.6812591 C83.0548214,35.9695641 82.2187493,36.1137145 81.2500443,36.1137145 C79.5432784,36.1137145 78.2920532,35.6524333 77.4963312,34.7298571 C76.7006093,33.807281 76.3027542,32.3657773 76.3027542,30.4053029 L76.3027542,22.1713516 Z M94.8723902,36.1483109 C93.6269124,36.1483109 92.4852414,35.9234364 91.4473432,35.4736805 C90.409445,35.0239246 89.5157128,34.406961 88.7661196,33.6227713 C88.0165264,32.8385815 87.428393,31.9333172 87.0017015,30.9069512 C86.57501,29.8805852 86.3616674,28.7792764 86.3616674,27.6029917 C86.3616674,26.4267071 86.57501,25.3253983 87.0017015,24.2990323 C87.428393,23.2726663 88.0165264,22.367402 88.7661196,21.5832122 C89.5157128,20.7990225 90.409445,20.1820589 91.4473432,19.732303 C92.4852414,19.2825471 93.6269124,19.0576725 94.8723902,19.0576725 C96.0948036,19.0576725 97.2249425,19.2825471 98.2628407,19.732303 C99.3007389,20.1820589 100.200237,20.7990225 100.961363,21.5832122 C101.722488,22.367402 102.316387,23.2726663 102.743079,24.2990323 C103.16977,25.3253983 103.383113,26.4267071 103.383113,27.6029917 C103.383113,28.7792764 103.16977,29.8805852 102.743079,30.9069512 C102.316387,31.9333172 101.722488,32.8385815 100.961363,33.6227713 C100.200237,34.406961 99.3007389,35.0239246 98.2628407,35.4736805 C97.2249425,35.9234364 96.0948036,36.1483109 94.8723902,36.1483109 Z M94.8723902,33.4497891 C95.7027088,33.4497891 96.4522907,33.2825747 97.1211584,32.9481408 C97.7900261,32.6137069 98.3550956,32.1754898 98.8163837,31.6334763 C99.2776718,31.0914628 99.6293987,30.4687332 99.8715749,29.7652689 C100.113751,29.0618045 100.234837,28.3410527 100.234837,27.6029917 C100.234837,26.8879952 100.113751,26.1787754 99.8715749,25.475311 C99.6293987,24.7718467 99.2719058,24.1433511 98.7990855,23.5898054 C98.3262652,23.0362597 97.7611957,22.5922766 97.1038602,22.2578427 C96.4465247,21.9234088 95.7027088,21.7561944 94.8723902,21.7561944 C94.0420716,21.7561944 93.2924897,21.9234088 92.623622,22.2578427 C91.9547543,22.5922766 91.3896848,23.0304937 90.9283967,23.5725072 C90.4671086,24.1145207 90.1153817,24.7372503 89.8732055,25.4407146 C89.6310292,26.144179 89.5099429,26.8649308 89.5099429,27.6029917 C89.5099429,28.3410527 89.6310292,29.0560385 89.8732055,29.7479706 C90.1153817,30.4399028 90.4728746,31.0626324 90.9456949,31.6161781 C91.4185152,32.1697238 91.9835847,32.6137069 92.6409202,32.9481408 C93.2982557,33.2825747 94.0420716,33.4497891 94.8723902,33.4497891 Z M105.830811,35.6639609 L105.830811,20.5799156 C105.830811,20.372336 105.819279,20.0379071 105.796214,19.576619 L108.771508,19.576619 L108.875297,22.1713516 C109.059812,21.8945787 109.301985,21.58898 109.601822,21.2545461 C109.901659,20.9201122 110.264918,20.6145135 110.69161,20.3377406 C111.118301,20.0609677 111.614178,19.8245611 112.179256,19.6285137 C112.744334,19.4324663 113.395894,19.334444 114.133955,19.334444 C114.479921,19.334444 114.797052,19.3575081 115.085357,19.4036369 C115.373662,19.4497657 115.644665,19.5189579 115.898373,19.6112155 L115.206444,22.5173159 C114.791285,22.3558651 114.260812,22.2751409 113.615008,22.2751409 C112.946141,22.2751409 112.329177,22.4019932 111.764099,22.6557017 C111.199021,22.9094101 110.70891,23.261137 110.293751,23.7108929 C109.878591,24.1606488 109.549929,24.6853561 109.307752,25.2850307 C109.065576,25.8847052 108.94449,26.5189668 108.94449,27.1878345 L108.94449,35.6639609 L105.830811,35.6639609 Z M127.410336,33.7265606 C126.810662,34.5338147 126.020718,35.1334803 125.040481,35.5255751 C124.060243,35.91767 123.051191,36.1137145 122.013293,36.1137145 C121.344425,36.1137145 120.681333,36.0272243 120.023998,35.8542413 C119.366662,35.6812582 118.766997,35.3929575 118.224983,34.9893304 C117.68297,34.5857033 117.244753,34.066762 116.910319,33.4324909 C116.575885,32.7982197 116.40867,32.0198078 116.40867,31.0972316 C116.40867,29.3674012 117.014102,27.9835577 118.224983,26.9456595 C119.435864,25.9077613 121.182967,25.38882 123.466343,25.38882 C123.835373,25.38882 124.227462,25.400352 124.642622,25.4234164 C125.057781,25.4464808 125.44987,25.4695449 125.8189,25.4926093 C126.187931,25.5156737 126.510828,25.5387377 126.787601,25.5618021 C127.064373,25.5848665 127.260418,25.6079306 127.37574,25.630995 L127.37574,25.0428556 C127.37574,23.8435066 127.012481,22.9843704 126.285952,22.4654213 C125.559424,21.9464722 124.573435,21.6870015 123.327957,21.6870015 C122.105544,21.6870015 121.136853,21.8542159 120.421857,22.1886498 C119.70686,22.5230837 119.107195,22.8632786 118.622842,23.2092446 L117.169792,21.0988621 C117.446565,20.8682181 117.780994,20.6375775 118.173089,20.4069335 C118.565183,20.1762894 119.026465,19.9629469 119.556946,19.7668994 C120.087427,19.570852 120.687093,19.4094036 121.35596,19.2825494 C122.024828,19.1556951 122.797474,19.092269 123.673922,19.092269 C125.749718,19.092269 127.3815,19.5939122 128.569317,20.5972139 C129.757134,21.6005155 130.351033,23.0247211 130.351033,24.8698735 L130.351033,34.8509447 C130.351033,35.0700565 130.362565,35.3410592 130.38563,35.6639609 L127.479529,35.6639609 L127.410336,33.7265606 Z M127.37574,28.0527454 C127.283482,28.029681 127.104736,28.0008509 126.839495,27.9662543 C126.574255,27.9316577 126.268656,27.9028276 125.92269,27.8797632 C125.576724,27.8566988 125.207699,27.8336347 124.815604,27.8105703 C124.423509,27.7875059 124.042952,27.7759739 123.673922,27.7759739 C122.797474,27.7759739 122.088254,27.8797622 121.546241,28.0873418 C121.004227,28.2949215 120.577542,28.5543921 120.266173,28.8657616 C119.954803,29.177131 119.741461,29.5230919 119.626139,29.9036546 C119.510817,30.2842173 119.453157,30.6474762 119.453157,30.9934423 C119.453157,31.8698897 119.752989,32.5329813 120.352664,32.9827372 C120.952338,33.4324931 121.782644,33.6573677 122.843607,33.6573677 C123.443282,33.6573677 124.014117,33.5535794 124.556131,33.3459998 C125.098144,33.1384201 125.576723,32.8616514 125.991883,32.5156854 C126.407042,32.1697193 126.741471,31.7660983 126.995179,31.3048102 C127.248888,30.8435221 127.37574,30.3707089 127.37574,29.8863564 L127.37574,28.0527454 Z M145.080465,22.4135266 C144.872885,22.3443334 144.521159,22.2463112 144.025274,22.1194569 C143.529389,21.9926027 142.785573,21.9291766 141.793804,21.9291766 C140.917356,21.9291766 140.121646,22.0733269 139.40665,22.361632 C138.691653,22.649937 138.07469,23.0535581 137.555741,23.5725072 C137.036792,24.0914563 136.633171,24.7084199 136.344865,25.4234164 C136.05656,26.1384129 135.91241,26.9225909 135.91241,27.7759739 C135.91241,28.5140349 135.9989,29.2059566 136.171883,29.85176 C136.344866,30.4975633 136.621635,31.0626327 137.002198,31.5469852 C137.38276,32.0313377 137.86134,32.4118947 138.43795,32.6886675 C139.01456,32.9654404 139.718014,33.1038247 140.548332,33.1038247 C141.309458,33.1038247 141.978315,32.9885045 142.554925,32.7578604 C143.131536,32.5272164 143.604349,32.2216176 143.973379,31.8410549 C144.34241,31.4604922 144.619178,31.0338071 144.803694,30.5609868 C144.988209,30.0881666 145.080465,29.5980553 145.080465,29.0906384 L145.080465,22.4135266 Z M135.670235,38.9506221 C136.200716,39.3196526 136.852276,39.6367834 137.624934,39.902024 C138.397591,40.1672647 139.337451,40.299883 140.444543,40.299883 C141.989858,40.299883 143.143061,39.8731979 143.904186,39.019815 C144.665312,38.166432 145.045869,37.0478251 145.045869,35.6639609 L145.045869,33.6919641 C144.884418,33.8303506 144.671075,34.020629 144.405835,34.2628053 C144.140594,34.5049815 143.806165,34.7356221 143.402538,34.954734 C142.998911,35.1738458 142.520332,35.3698903 141.966786,35.5428733 C141.41324,35.7158564 140.778979,35.8023466 140.063982,35.8023466 C138.887697,35.8023466 137.844049,35.6005361 136.933005,35.196909 C136.021961,34.7932819 135.255081,34.2397445 134.632342,33.5362802 C134.009603,32.8328158 133.53679,31.9909777 133.213888,31.0107405 C132.890987,30.0305033 132.729538,28.9637906 132.729538,27.8105703 C132.729538,26.5650925 132.948647,25.4176556 133.38687,24.3682252 C133.825094,23.3187947 134.442058,22.4077644 135.23778,21.6351069 C136.033502,20.8624493 136.984894,20.2627838 138.091985,19.8360923 C139.199077,19.4094008 140.433004,19.1960583 141.793804,19.1960583 C143.108475,19.1960583 144.33087,19.3113786 145.461026,19.5420226 C146.591182,19.7726667 147.502212,20.0263713 148.194144,20.3031442 L148.194144,35.6639609 C148.194144,37.9934657 147.51952,39.7982283 146.170253,41.0783028 C144.820985,42.3583772 142.923966,42.9984049 140.479139,42.9984049 C138.841567,42.9984049 137.538447,42.8196584 136.569742,42.4621602 C135.601037,42.1046619 134.816859,41.6952748 134.217185,41.2339867 L135.670235,38.9506221 Z M167.118394,33.3114034 C166.933878,33.518983 166.65711,33.7842197 166.288079,34.1071213 C165.919049,34.430023 165.440469,34.7413878 164.852327,35.0412251 C164.264185,35.3410623 163.572263,35.600533 162.776541,35.8196448 C161.980819,36.0387567 161.075555,36.1483109 160.060721,36.1483109 C158.815243,36.1483109 157.673572,35.9407344 156.635674,35.5255751 C155.597776,35.1104158 154.70981,34.5222823 153.971749,33.761157 C153.233688,33.0000316 152.662852,32.0890013 152.259225,31.0280387 C151.855598,29.9670761 151.653788,28.7908091 151.653788,27.4992024 C151.653788,26.3229178 151.849832,25.221609 152.241927,24.195243 C152.634022,23.168877 153.187559,22.2809107 153.902556,21.5313176 C154.617552,20.7817244 155.465156,20.1878249 156.445394,19.7496012 C157.425631,19.3113775 158.503876,19.092269 159.68016,19.092269 C161.064025,19.092269 162.251824,19.3575056 163.243593,19.887987 C164.235362,20.4184683 165.04837,21.1219221 165.682642,21.9983694 C166.316913,22.8748168 166.78396,23.8781034 167.083797,25.0082592 C167.383634,26.138415 167.533551,27.314682 167.533551,28.5370955 L154.836659,28.5370955 C154.859724,29.252092 155.015406,29.9094177 155.303711,30.5090922 C155.592016,31.1087667 155.978339,31.627708 156.462692,32.0659317 C156.947044,32.5041554 157.500582,32.8501163 158.123321,33.1038247 C158.74606,33.3575332 159.403385,33.4843855 160.095317,33.4843855 C161.456117,33.4843855 162.574724,33.2537449 163.451172,32.7924568 C164.327619,32.3311687 164.961881,31.8814196 165.353975,31.4431959 L167.118394,33.3114034 Z M164.316082,26.2191344 C164.223825,24.9736565 163.785608,23.9127098 163.001418,23.0362625 C162.217228,22.1598151 161.110153,21.721598 159.68016,21.721598 C158.942099,21.721598 158.279008,21.8484503 157.690865,22.1021587 C157.102723,22.3558672 156.60108,22.690296 156.18592,23.1054553 C155.770761,23.5206146 155.447864,23.9991938 155.21722,24.5412073 C154.986576,25.0832208 154.859724,25.6425243 154.836659,26.2191344 L164.316082,26.2191344 Z M171.823509,12.5881394 L179.46932,12.5881394 C180.599476,12.5881394 181.568167,12.7438218 182.375421,13.0551912 C183.182675,13.3665607 183.840001,13.7817138 184.347418,14.3006629 C184.854835,14.819612 185.22386,15.4192775 185.454504,16.0996774 C185.685148,16.7800774 185.800468,17.5008292 185.800468,18.2619546 C185.800468,18.9077579 185.69668,19.5189554 185.4891,20.0955656 C185.28152,20.6721757 184.998986,21.196883 184.641487,21.6697033 C184.283989,22.1425236 183.851538,22.5403786 183.344121,22.8632803 C182.836704,23.1861819 182.271635,23.4052905 181.648896,23.5206125 C182.24857,23.6128701 182.8713,23.7743186 183.517103,24.0049626 C184.162907,24.2356066 184.75104,24.5758015 185.281521,25.0255574 C185.812003,25.4753133 186.25022,26.0576808 186.596186,26.7726773 C186.942152,27.4876739 187.115132,28.3756401 187.115132,29.4366027 C187.115132,30.6820806 186.884492,31.7026652 186.423204,32.4983872 C185.961916,33.2941091 185.33342,33.9283707 184.537698,34.401191 C183.741976,34.8740113 182.819414,35.2026742 181.769983,35.3871894 C180.720553,35.5717046 179.607712,35.6639609 178.431427,35.6639609 L171.823509,35.6639609 L171.823509,12.5881394 Z M178.535217,22.8632803 C179.157956,22.8632803 179.797983,22.7825561 180.455319,22.6211052 C181.112654,22.4596544 181.706554,22.1944177 182.237035,21.8253873 C182.767517,21.4563568 183.205734,20.9893096 183.5517,20.4242317 C183.897666,19.8591538 184.070646,19.172998 184.070646,18.3657439 C184.070646,17.4431677 183.903432,16.7051178 183.568998,16.1515721 C183.234564,15.5980264 182.802113,15.1713413 182.271632,14.871504 C181.74115,14.5716668 181.147251,14.3756223 180.489915,14.2833646 C179.83258,14.191107 179.18102,14.1449789 178.535217,14.1449789 L173.484137,14.1449789 L173.484137,22.8632803 L178.535217,22.8632803 Z M178.01627,34.1071213 C178.892718,34.1071213 179.769152,34.0667592 180.645599,33.9860338 C181.522047,33.9053084 182.311991,33.7092639 183.015455,33.3978944 C183.718919,33.086525 184.289755,32.6194778 184.727978,31.9967389 C185.166202,31.3739999 185.385311,30.5206298 185.385311,29.4366027 C185.385311,28.3987045 185.171968,27.5511004 184.745277,26.8937648 C184.318585,26.2364293 183.77658,25.72902 183.119244,25.3715217 C182.461909,25.0140235 181.729625,24.7660848 180.922371,24.6276984 C180.115117,24.489312 179.330939,24.4201198 178.569813,24.4201198 L173.484137,24.4201198 L173.484137,34.1071213 L178.01627,34.1071213 Z M189.424444,40.8188295 C189.632024,41.0264092 189.914559,41.2109216 190.272057,41.3723725 C190.629555,41.5338233 191.038942,41.6145475 191.50023,41.6145475 C192.192163,41.6145475 192.728402,41.3723749 193.108965,40.8880224 C193.489527,40.4036699 193.852786,39.7117481 194.198752,38.8122364 L195.513417,35.4563823 L188.421148,19.7496012 L190.185566,19.7496012 L196.309135,33.5535784 L201.602389,19.7496012 L203.297614,19.7496012 L195.47882,39.4349722 C195.340434,39.7809382 195.167453,40.1614952 194.959874,40.5766545 C194.752294,40.9918138 194.492824,41.3781368 194.181454,41.735635 C193.870085,42.0931333 193.495294,42.3929661 193.05707,42.6351423 C192.618846,42.8773186 192.099905,42.9984049 191.50023,42.9984049 C190.831363,42.9984049 190.272059,42.9003826 189.822303,42.7043352 C189.372547,42.5082877 188.974692,42.2488171 188.628726,41.9259154 L189.424444,40.8188295 Z M217.239977,36.2175038 C215.57934,36.2175038 214.051346,35.906139 212.65595,35.2834001 C211.260553,34.6606612 210.055456,33.807291 209.040622,32.723264 C208.025789,31.639237 207.230079,30.3649477 206.653469,28.900358 C206.076858,27.4357683 205.788558,25.8501143 205.788558,24.1433483 C205.788558,22.4596468 206.076858,20.8797588 206.653469,19.4036369 C207.230079,17.927515 208.025789,16.6416937 209.040622,15.5461345 C210.055456,14.4505753 211.260553,13.5914391 212.65595,12.9687002 C214.051346,12.3459612 215.57934,12.0345964 217.239977,12.0345964 C218.900614,12.0345964 220.428608,12.3459612 221.824005,12.9687002 C223.219401,13.5914391 224.424498,14.4505753 225.439332,15.5461345 C226.454166,16.6416937 227.249876,17.927515 227.826486,19.4036369 C228.403096,20.8797588 228.691397,22.4596468 228.691397,24.1433483 C228.691397,25.8501143 228.403096,27.4357683 227.826486,28.900358 C227.249876,30.3649477 226.454166,31.639237 225.439332,32.723264 C224.424498,33.807291 223.219401,34.6606612 221.824005,35.2834001 C220.428608,35.906139 218.900614,36.2175038 217.239977,36.2175038 Z M217.239977,34.6606643 C218.693035,34.6606643 220.019218,34.3896616 221.218567,33.8476481 C222.417916,33.3056346 223.438501,32.5560527 224.280352,31.5988799 C225.122202,30.6417071 225.773762,29.5231002 226.23505,28.2430258 C226.696338,26.9629513 226.926979,25.5964058 226.926979,24.1433483 C226.926979,22.6902908 226.696338,21.3179794 226.23505,20.0263727 C225.773762,18.734766 225.122202,17.6161592 224.280352,16.6705186 C223.438501,15.724878 222.417916,14.9752961 221.218567,14.4217504 C220.019218,13.8682047 218.693035,13.591436 217.239977,13.591436 C215.78692,13.591436 214.460736,13.8682047 213.261387,14.4217504 C212.062038,14.9752961 211.041454,15.724878 210.199603,16.6705186 C209.357752,17.6161592 208.706193,18.734766 208.244904,20.0263727 C207.783616,21.3179794 207.552976,22.6902908 207.552976,24.1433483 C207.552976,25.5964058 207.783616,26.9629513 208.244904,28.2430258 C208.706193,29.5231002 209.357752,30.6417071 210.199603,31.5988799 C211.041454,32.5560527 212.062038,33.3056346 213.261387,33.8476481 C214.460736,34.3896616 215.78692,34.6606643 217.239977,34.6606643 Z M230.066605,19.7496012 L231.796427,19.7496012 L236.22477,33.6227713 L240.7915,19.7496012 L242.279146,19.7496012 L246.742086,33.8649463 L250.962851,19.7496012 L252.554287,19.7496012 L247.468612,35.6639609 L245.773386,35.6639609 L241.379639,22.1021587 L236.916699,35.6639609 L235.429052,35.6639609 L230.066605,19.7496012 Z M255.529581,35.6639609 L255.529581,21.1507568 C255.529581,20.9085805 255.523815,20.67794 255.512282,20.4588281 C255.50075,20.2397163 255.483452,20.0033097 255.460388,19.7496012 L256.913438,19.7496012 C256.936502,20.0033097 256.9538,20.2339503 256.965333,20.4415299 C256.976865,20.6491095 256.988397,20.8739841 256.999929,21.1161604 C257.011461,21.3583366 257.017227,21.6351053 257.017227,21.9464748 L257.017227,23.0708589 C257.201743,22.7248928 257.461213,22.3328038 257.795647,21.8945801 C258.130081,21.4563564 258.545234,21.0469694 259.041119,20.6664067 C259.537003,20.285844 260.130903,19.9687132 260.822835,19.7150048 C261.514767,19.4612963 262.310477,19.334444 263.209989,19.334444 C264.340145,19.334444 265.291537,19.4958924 266.064195,19.8187941 C266.836852,20.1416958 267.465348,20.6087429 267.9497,21.2199497 C268.434053,21.8311564 268.780014,22.5692063 268.987593,23.4341214 C269.195173,24.2990366 269.298961,25.2619611 269.298961,26.3229237 L269.298961,35.6639609 L267.742122,35.6639609 L267.742122,26.8418702 C267.742122,25.6655856 267.638334,24.6853631 267.430754,23.9011733 C267.223174,23.1169835 266.917576,22.494254 266.513948,22.0329659 C266.110321,21.5716778 265.614444,21.2487809 265.026302,21.0642657 C264.438159,20.8797505 263.763536,20.7874942 263.00241,20.7874942 C261.987577,20.7874942 261.111142,20.9950708 260.373081,21.4102301 C259.63502,21.8253893 259.023823,22.3558627 258.53947,23.001666 C258.055118,23.6474693 257.691859,24.3624552 257.449683,25.1466449 C257.207506,25.9308347 257.08642,26.7034807 257.08642,27.464606 L257.08642,35.6639609 L255.529581,35.6639609 Z M286.657722,33.2768069 C285.96579,34.1532543 285.02593,34.83941 283.838113,35.3352947 C282.650296,35.8311794 281.433667,36.0791181 280.188189,36.0791181 C279.011904,36.0791181 277.922128,35.8773076 276.918826,35.4736805 C275.915524,35.0700534 275.056388,34.4992179 274.341392,33.761157 C273.626395,33.023096 273.067092,32.1408958 272.663465,31.1145298 C272.259838,30.0881638 272.058027,28.9522589 272.058027,27.706781 C272.058027,26.5535608 272.248305,25.4695501 272.628868,24.4547162 C273.009431,23.4398824 273.534138,22.5519162 274.203006,21.7907908 C274.871874,21.0296655 275.679116,20.4299999 276.624756,19.9917763 C277.570397,19.5535526 278.60828,19.334444 279.738435,19.334444 C280.822462,19.334444 281.831515,19.5247225 282.765623,19.9052852 C283.699732,20.2858478 284.506974,20.8451513 285.187374,21.5832122 C285.867774,22.3212732 286.398247,23.2380695 286.77881,24.3336287 C287.159372,25.4291879 287.349651,26.6919452 287.349651,28.1219383 L273.787849,28.1219383 C273.810913,29.02145 273.983894,29.8690542 274.306795,30.6647762 C274.629697,31.4604981 275.067914,32.1524199 275.62146,32.7405622 C276.175005,33.3287045 276.838097,33.7899857 277.610755,34.1244196 C278.383412,34.4588534 279.242548,34.6260678 280.188189,34.6260678 C280.672542,34.6260678 281.174185,34.5741737 281.693134,34.4703839 C282.212083,34.3665941 282.713726,34.2109117 283.198079,34.003332 C283.682431,33.7957524 284.126414,33.5535798 284.530041,33.2768069 C284.933669,33.0000341 285.273863,32.6886693 285.550636,32.3427032 L286.657722,33.2768069 Z M285.654426,26.7726773 C285.446846,24.8122029 284.824116,23.3245711 283.786218,22.3097373 C282.74832,21.2949035 281.399072,20.7874942 279.738435,20.7874942 C278.885052,20.7874942 278.10664,20.9431766 277.403176,21.2545461 C276.699712,21.5659156 276.09428,21.9926006 275.586863,22.5346142 C275.079446,23.0766277 274.670059,23.7108893 274.35869,24.437418 C274.04732,25.1639468 273.868574,25.9423588 273.822445,26.7726773 L285.654426,26.7726773 Z M290.316295,35.6639609 L290.316295,21.1507568 C290.316295,20.9085805 290.310529,20.67794 290.298997,20.4588281 C290.287465,20.2397163 290.270167,20.0033097 290.247102,19.7496012 L291.700152,19.7496012 C291.723217,20.0033097 291.740515,20.2454823 291.752047,20.4761263 C291.763579,20.7067704 291.775111,20.954709 291.786644,21.2199497 C291.798176,21.4851903 291.803942,21.7792571 291.803942,22.1021587 L291.803942,23.2438411 C291.988457,22.897875 292.236396,22.511552 292.547765,22.0848605 C292.859135,21.658169 293.25699,21.260314 293.741342,20.8912835 C294.225695,20.5222531 294.790764,20.2108883 295.436567,19.9571798 C296.082371,19.7034714 296.831953,19.576619 297.685336,19.576619 C298.192752,19.576619 298.63097,19.6573433 299,19.8187941 L298.550246,21.3064408 C298.388796,21.2372475 298.198517,21.1911194 297.979405,21.168055 C297.760293,21.1449906 297.558483,21.1334586 297.373968,21.1334586 C296.543649,21.1334586 295.794067,21.317971 295.125199,21.6870015 C294.456332,22.056032 293.87973,22.5403772 293.395378,23.1400518 C292.911025,23.7397263 292.536234,24.425882 292.270994,25.1985396 C292.005753,25.9711971 291.873135,26.7496091 291.873135,27.5337989 L291.873135,35.6639609 L290.316295,35.6639609 Z" id="StorageByOwner" fill="#4A4A4A"></path>
                </g>
            </g>
        </g>
    </g>
</svg>