<?xml version="1.0" encoding="UTF-8"?>
<svg width="70px" height="70px" viewBox="0 0 70 70" version="1.1" xmlns="http://www.w3.org/2000/svg" xmlns:xlink="http://www.w3.org/1999/xlink">
    <title>A41FC677-E131-4DBD-821F-2CB2EB153DF4@2x</title>
    <g id="Desktop" stroke="none" stroke-width="1" fill="none" fill-rule="evenodd">
        <g id="Desktop---Home" transform="translate(-235.000000, -4105.000000)" fill-rule="nonzero">
            <g id="CTA-/-List" transform="translate(0.000000, 3987.000000)">
                <g id="icon-large-lightbulb" transform="translate(235.000000, 118.000000)">
                    <circle id="icon" fill="#48A9A6" cx="35" cy="35" r="35"></circle>
                    <path d="M38.4643369,45.3023286 L38.4303238,45.9469707 C38.3814234,46.8737688 38.2404,47.5993549 37.844057,48.3097171 C37.2468773,49.3800372 36.2008565,50 34.6955605,50 C33.1903677,50 32.1281137,49.384942 31.5209541,48.3265664 C31.0972914,47.5880549 30.9365811,46.7097126 30.961956,45.8956265 L30.980449,45.3023286 L38.4643369,45.3023286 Z M37.1479629,46.5270812 L32.2036487,46.5270812 C32.3306543,47.8441788 33.0699643,48.7752475 34.6955605,48.7752475 C36.3025944,48.7752475 36.9478316,47.9725886 37.1479629,46.5270812 Z M34.7440201,27.6008666 C39.0334266,27.7100068 42.2593938,30.700323 42.2593938,35.2782041 C42.2593938,37.3168188 41.5585068,38.876235 40.2059482,40.5480115 C39.9945703,40.8092769 39.1344663,41.8064518 38.9540628,42.0372932 C38.6181694,42.4670967 38.4570973,42.7694234 38.4293854,43.0083624 C38.4287533,43.0139476 38.4287533,43.0139476 38.4281889,43.0194849 L38.3734826,43.5714655 L31.0071107,43.5714655 L30.9634753,43.0062229 C30.9455205,42.7736399 30.7932177,42.4741713 30.4641336,42.0439604 C30.2841069,41.8086119 29.4231067,40.7939954 29.2148355,40.5320788 C27.8875218,38.8628827 27.1982753,37.3050405 27.1982753,35.2782414 C27.1982753,30.7003903 30.4245248,27.7095333 34.7129316,27.6008666 L34.7440201,27.6008666 Z M34.7284124,28.8256346 C31.0862696,28.9247533 28.4230278,31.3991889 28.4230278,35.2782414 C28.4230278,36.9867186 29.0032878,38.2982284 30.1734557,39.7698019 C30.3624301,40.0074514 31.2336401,41.0340992 31.436917,41.2998427 C31.7298929,41.6828493 31.9361974,42.0182036 32.0580185,42.3467129 L37.3424005,42.3467129 C37.4701268,42.0128594 37.6842064,41.6731981 37.9890471,41.2831291 C38.1920226,41.0234051 39.0613407,40.0155475 39.2537972,39.7776693 C40.4455842,38.3046081 41.0346413,36.994004 41.0346413,35.2782414 C41.0346413,31.3991292 38.3716489,28.9251564 34.7284124,28.8256346 Z M44.263308,22.1660577 L45.1401608,23.0211295 L42.1595067,26.0777089 L41.2826539,25.222637 L44.263308,22.1660577 Z M24.8768528,22.1660577 L27.8575069,25.222637 L26.9806541,26.0777089 L24,23.0211295 L24.8768528,22.1660577 Z M35.1674781,20 L35.1674781,24.322656 L33.9427256,24.322656 L33.9427256,20 L35.1674781,20 Z" id="Combined-Shape" fill="#CAFFB9"></path>
                </g>
            </g>
        </g>
    </g>
</svg>