<?xml version="1.0" encoding="UTF-8"?>
<svg width="45px" height="45px" viewBox="0 0 45 45" version="1.1" xmlns="http://www.w3.org/2000/svg" xmlns:xlink="http://www.w3.org/1999/xlink">
    <title>2589761F-3750-4553-9FCA-5B69E1F17CFE@2x</title>
    <g id="Desktop" stroke="none" stroke-width="1" fill="none" fill-rule="evenodd">
        <g id="Desktop---Home" transform="translate(-836.000000, -2015.000000)" fill-rule="nonzero">
            <g id="Benefits" transform="translate(0.000000, 1571.000000)">
                <g id="Content" transform="translate(836.000000, 213.000000)">
                    <g id="icon-medium-view" transform="translate(0.000000, 231.000000)">
                        <circle id="Oval" fill="#4D9078" cx="22.5" cy="22.5" r="22.5"></circle>
                        <path d="M22.5,14 C26.2495541,14 29.3861051,15.6216503 31.9248358,18.3101807 C32.8080036,19.2454604 33.5548121,20.2461366 34.16987,21.2473401 C34.3855917,21.5984963 34.5697108,21.9252064 34.7227054,22.2194024 C34.8158191,22.3984523 34.8786391,22.5286941 34.9116038,22.6020572 L35,22.7987831 L34.917053,22.9978678 C34.8859099,23.0726157 34.8262892,23.2050994 34.7374267,23.3871302 C34.5914807,23.6860941 34.4148083,24.0180655 34.2066032,24.3748579 C33.6130055,25.3920816 32.8839698,26.408767 32.0122299,27.3590402 C29.5072921,30.0896429 26.3474163,31.7364514 22.5,31.7364514 C18.6525837,31.7364514 15.4927079,30.0896429 12.9877701,27.3590402 C12.1160302,26.408767 11.3869945,25.3920816 10.7933968,24.3748579 C10.5851917,24.0180655 10.4085193,23.6860941 10.2625733,23.3871302 C10.1737108,23.2050994 10.1140901,23.0726157 10.082947,22.9978678 L10,22.7987831 L10.0883962,22.6020572 C10.1213609,22.5286941 10.1841809,22.3984523 10.2772946,22.2194024 C10.4302892,21.9252064 10.6144083,21.5984963 10.83013,21.2473401 C11.4451879,20.2461366 12.1919964,19.2454604 13.0751642,18.3101807 C15.6138949,15.6216503 18.7504459,14 22.5,14 Z M22.5,14.9964299 C19.053511,14.9964299 16.1641184,16.4902951 13.7996406,18.9942906 C12.9666854,19.876395 12.260293,20.822916 11.6791516,21.7689097 C11.4762036,22.0992726 11.3036831,22.4054015 11.1613282,22.6791381 C11.1365454,22.7267935 11.1136342,22.7716423 11.09259,22.8135553 C11.1125806,22.8560909 11.1343818,22.9016184 11.1580032,22.9500058 C11.2934423,23.2274469 11.4585857,23.5377551 11.6540118,23.8726486 C12.213646,24.8316703 12.9017186,25.7912301 13.7220399,26.6854526 C16.0515627,29.2248375 18.9588792,30.7400215 22.5,30.7400215 C26.0411208,30.7400215 28.9484373,29.2248375 31.2779601,26.6854526 C32.0982814,25.7912301 32.786354,24.8316703 33.3459882,23.8726486 C33.5414143,23.5377551 33.7065577,23.2274469 33.8419968,22.9500058 C33.8656182,22.9016184 33.8874194,22.8560909 33.90741,22.8135553 C33.8863658,22.7716423 33.8634546,22.7267935 33.8386718,22.6791381 C33.6963169,22.4054015 33.5237964,22.0992726 33.3208484,21.7689097 C32.739707,20.822916 32.0333146,19.876395 31.2003594,18.9942906 C28.8358816,16.4902951 25.946489,14.9964299 22.5,14.9964299 Z M22.5,17.6070761 C22.7277407,17.6070761 23.0864387,17.6335669 23.4618779,17.675537 L23.7133975,17.7056895 C24.5936229,17.8184034 25.4268073,18.0020703 24.7619829,18.1168016 C23.7489172,18.2916302 22.9782863,19.1746453 22.9782863,20.2376509 C22.9782863,21.426327 23.9418987,22.3899394 25.1305748,22.3899394 C26.1935804,22.3899394 27.0765955,21.6193085 27.2514241,20.6062428 C27.4262527,19.5931771 27.7611496,22.0584809 27.7611496,22.8682257 C27.7611496,25.7738784 25.4056527,28.1293753 22.5,28.1293753 C19.5943473,28.1293753 17.2388504,25.7738784 17.2388504,22.8682257 C17.2388504,19.962573 19.5943473,17.6070761 22.5,17.6070761 Z" id="Combined-Shape" fill="#CAFFB9"></path>
                    </g>
                </g>
            </g>
        </g>
    </g>
</svg>