<?xml version="1.0" encoding="UTF-8"?>
<svg width="24px" height="18px" viewBox="0 0 24 18" version="1.1" xmlns="http://www.w3.org/2000/svg" xmlns:xlink="http://www.w3.org/1999/xlink">
    <title>28031622-D3FD-4516-8F24-5D8257F753F7@2x</title>
    <defs>
        <linearGradient x1="50%" y1="0%" x2="50%" y2="100%" id="linearGradient-1">
            <stop stop-color="#83DD9D" offset="0%"></stop>
            <stop stop-color="#4CB964" offset="100%"></stop>
        </linearGradient>
    </defs>
    <g id="Mobile" stroke="none" stroke-width="1" fill="none" fill-rule="evenodd">
        <g id="Mobile---Home" transform="translate(-321.000000, -36.000000)" fill="url(#linearGradient-1)" fill-rule="nonzero">
            <g id="Navigation-/-Primary">
                <path d="M321.923077,36 C321.412846,36 321,36.4237247 321,36.9473684 C321,37.4710121 321.41286,37.8947368 321.923077,37.8947368 L344.076923,37.8947368 C344.587154,37.8947368 345,37.4710121 345,36.9473684 C345,36.4237247 344.58714,36 344.076923,36 L321.923077,36 Z M321.923077,44.0526316 C321.412846,44.0526316 321,44.4763563 321,45 C321,45.5236437 321.41286,45.9473684 321.923077,45.9473684 L344.076923,45.9473684 C344.587154,45.9473684 345,45.5236437 345,45 C345,44.4763563 344.58714,44.0526316 344.076923,44.0526316 L321.923077,44.0526316 Z M321.923077,52.1052632 C321.412846,52.1052632 321,52.5289879 321,53.0526316 C321,53.5762753 321.41286,54 321.923077,54 L344.076923,54 C344.587154,54 345,53.5762753 345,53.0526316 C345,52.5289879 344.58714,52.1052632 344.076923,52.1052632 L321.923077,52.1052632 Z" id="icon-menu"></path>
            </g>
        </g>
    </g>
</svg>