<?xml version="1.0" encoding="UTF-8"?>
<svg width="20px" height="20px" viewBox="0 0 20 20" version="1.1" xmlns="http://www.w3.org/2000/svg" xmlns:xlink="http://www.w3.org/1999/xlink">
    <title>9A217933-B1BC-4681-9E7A-08B55E72661B</title>
    <g id="Desktop" stroke="none" stroke-width="1" fill="none" fill-rule="evenodd">
        <g id="Desktop---Home" transform="translate(-1035.000000, -4830.000000)" fill="#4CB964" fill-rule="nonzero">
            <g id="Navigation-/-Footer" transform="translate(0.000000, 4645.000000)">
                <g id="Content" transform="translate(135.000000, 138.000000)">
                    <g id="Join-Us" transform="translate(600.000000, 0.000000)">
                        <path d="M314.122422,47.0577823 C315.186944,47.1063357 315.913974,47.275419 316.550131,47.522672 C317.207805,47.7782224 317.765553,48.1202002 318.321595,48.6762019 C318.877597,49.2322433 319.219574,49.7899918 319.475164,50.4476658 C319.722378,51.0838223 319.891461,51.8108526 319.940014,52.8753745 C319.981403,53.7824707 319.995922,54.1644986 319.99934,55.9286259 L319.999772,57.7939759 C319.998194,59.0755324 319.991959,59.6899043 319.976283,60.2158416 L319.969952,60.4100531 C319.962028,60.6344344 319.952183,60.8557359 319.940014,61.1224222 C319.891461,62.1869442 319.722378,62.9139745 319.475164,63.5501309 C319.219574,64.2078049 318.877597,64.7655534 318.321595,65.3215949 C317.765553,65.8775966 317.207805,66.2195743 316.550131,66.4751644 C315.913974,66.7223777 315.186944,66.891461 314.122422,66.9400144 C313.855736,66.9521825 313.634434,66.9620282 313.410053,66.9699521 L313.215842,66.9762827 C312.724967,66.9909142 312.157056,66.9973207 311.041563,66.9993928 L309.203849,66.9997719 C307.201389,66.9973063 306.827826,66.983472 305.875375,66.9400144 C304.810853,66.891461 304.083822,66.7223777 303.447666,66.4751644 C302.789992,66.2195743 302.232243,65.8775966 301.676202,65.3215949 C301.1202,64.7655534 300.778222,64.2078049 300.522672,63.5501309 C300.275419,62.9139745 300.106336,62.1869442 300.057782,61.1224222 C300.018259,60.2561931 300.003238,59.8687866 299.998987,58.2993863 L299.998376,55.9712313 C300.001645,54.1705775 300.016063,53.7897275 300.057782,52.8753745 C300.106336,51.8108526 300.275419,51.0838223 300.522672,50.4476658 C300.778222,49.7899918 301.1202,49.2322433 301.676202,48.6762019 C302.232243,48.1202002 302.789992,47.7782224 303.447666,47.522672 C304.083822,47.275419 304.810853,47.1063357 305.875375,47.0577823 C306.741604,47.0182588 307.12901,47.003238 308.698432,46.9989875 L311.02659,46.9983764 C312.827219,47.0016446 313.208069,47.0160631 314.122422,47.0577823 Z M311.040831,48.8003918 L308.95699,48.8003918 C307.218511,48.8034851 306.855875,48.8169613 305.957514,48.8579495 C304.982397,48.9024138 304.452836,49.0653435 304.100417,49.2023093 C303.633582,49.3837394 303.300418,49.6004629 302.95046,49.9504601 C302.600463,50.3004177 302.383739,50.633582 302.202309,51.100417 C302.065344,51.4528359 301.902414,51.9823973 301.85795,52.9575143 C301.816961,53.8558746 301.803485,54.2185114 301.800392,55.9569905 L301.800392,58.0408308 C301.803485,59.7792853 301.816961,60.1419221 301.85795,61.0402824 C301.902414,62.0153995 302.065344,62.5449608 302.202309,62.8973798 C302.383739,63.3642148 302.600503,63.6973791 302.95046,64.0473366 C303.300418,64.3973338 303.633582,64.6140574 304.100417,64.7954874 C304.452836,64.9324532 304.982397,65.0953829 305.957514,65.1398472 C306.191843,65.1505398 306.389715,65.1593601 306.585071,65.1666122 L306.780845,65.1733529 C307.272273,65.1888847 307.818186,65.1953302 308.941836,65.1973778 L310.806174,65.1977509 C312.10136,65.1962046 312.690445,65.1899941 313.21697,65.1733529 L313.412742,65.1666122 C313.608095,65.1593601 313.805963,65.1505398 314.040282,65.1398472 C315.015399,65.0953829 315.544961,64.9324532 315.89738,64.7954874 C316.364215,64.6140574 316.697379,64.3973338 317.047337,64.0473366 C317.397334,63.6973791 317.614057,63.3642148 317.795487,62.8973798 C317.932453,62.5449608 318.095383,62.0153995 318.139847,61.0402824 C318.15054,60.8059276 318.15936,60.6080303 318.166612,60.412655 L318.173353,60.2168636 C318.188885,59.7253966 318.19533,59.1794808 318.197378,58.0559132 L318.197751,56.1917082 C318.196205,54.896591 318.189994,54.3075081 318.173353,53.7809341 L318.166612,53.5851421 C318.15936,53.3897665 318.15054,53.1918692 318.139847,52.9575143 C318.095383,51.9823973 317.932453,51.4528359 317.795487,51.100417 C317.614057,50.633582 317.397334,50.3004177 317.047337,49.9504601 C316.697379,49.6004629 316.364215,49.3837394 315.89738,49.2023093 C315.544961,49.0653435 315.015399,48.9024138 314.040282,48.8579495 C313.141922,48.8169613 312.779285,48.8034851 311.040831,48.8003918 Z M309.998918,51.8630981 C312.835341,51.8630981 315.134699,54.1624559 315.134699,56.9989182 C315.134699,59.8353408 312.835341,62.1346987 309.998918,62.1346987 C307.162456,62.1346987 304.863098,59.8353408 304.863098,56.9989182 C304.863098,54.1624559 307.162456,51.8630981 309.998918,51.8630981 Z M309.998918,53.6651312 C308.157701,53.6651312 306.665131,55.157701 306.665131,56.9989182 C306.665131,58.8400957 308.157701,60.3326656 309.998918,60.3326656 C311.840096,60.3326656 313.332666,58.8400957 313.332666,56.9989182 C313.332666,55.157701 311.840096,53.6651312 309.998918,53.6651312 Z M315.337607,50.4600126 C316.000442,50.4600126 316.537784,50.9973552 316.537784,51.6601902 C316.537784,52.3230252 316.000442,52.8603281 315.337607,52.8603281 C314.674811,52.8603281 314.137469,52.3230252 314.137469,51.6601902 C314.137469,50.9973552 314.674811,50.4600126 315.337607,50.4600126 Z" id="icon-ig"></path>
                    </g>
                </g>
            </g>
        </g>
    </g>
</svg>