<?xml version="1.0" encoding="UTF-8"?>
<svg width="17px" height="17px" viewBox="0 0 17 17" version="1.1" xmlns="http://www.w3.org/2000/svg" xmlns:xlink="http://www.w3.org/1999/xlink">
    <title>A94056CE-095E-4AFC-8208-EED011215A7D</title>
    <g id="Desktop" stroke="none" stroke-width="1" fill="none" fill-rule="evenodd">
        <g id="Desktop---Home" transform="translate(-1079.000000, -4832.000000)" fill="#4CB964">
            <g id="Navigation-/-Footer" transform="translate(0.000000, 4645.000000)">
                <g id="Content" transform="translate(135.000000, 138.000000)">
                    <g id="Join-Us" transform="translate(600.000000, 0.000000)">
                        <path d="M361,57.5519716 C361,52.8288446 357.194424,49 352.5,49 C347.805576,49 344,52.8288446 344,57.5519716 C344,61.8205078 347.108327,65.3584852 351.171875,66 L351.171875,60.0240259 L349.013672,60.0240259 L349.013672,57.5519716 L351.171875,57.5519716 L351.171875,55.6678654 C351.171875,53.5245275 352.440865,52.3406139 354.382451,52.3406139 C355.312421,52.3406139 356.285156,52.5076446 356.285156,52.5076446 L356.285156,54.6122314 L355.213326,54.6122314 C354.157417,54.6122314 353.828125,55.2714514 353.828125,55.9477587 L353.828125,57.5519716 L356.185547,57.5519716 L355.808691,60.0240259 L353.828125,60.0240259 L353.828125,66 C357.891673,65.3584852 361,61.8205078 361,57.5519716" id="icon-facebook"></path>
                    </g>
                </g>
            </g>
        </g>
    </g>
</svg>