<?xml version="1.0" encoding="UTF-8"?>
<svg width="45px" height="45px" viewBox="0 0 45 45" version="1.1" xmlns="http://www.w3.org/2000/svg" xmlns:xlink="http://www.w3.org/1999/xlink">
    <title>33557252-6D14-4F97-8BF0-533160AD5D1A@2x</title>
    <g id="Mobile" stroke="none" stroke-width="1" fill="none" fill-rule="evenodd">
        <g id="Mobile---Home" transform="translate(-15.000000, -2564.000000)" fill-rule="nonzero">
            <g id="Benefits" transform="translate(15.000000, 2078.000000)">
                <g id="icon-medium-location" transform="translate(0.000000, 486.000000)">
                    <circle id="Oval" fill="#48A9A6" cx="22.5" cy="22.5" r="22.5"></circle>
                    <path d="M22.0319627,10 C25.4951185,10 28.3841697,11.4443505 29.610894,14.7580652 C30.3727347,16.8160032 30.2067574,19.3448429 29.2826683,22.2391997 C28.6124103,24.3385271 27.5644533,26.5639818 26.2416318,28.8401913 C25.4061213,30.2778735 24.5115419,31.6492059 23.6168163,32.9087503 C23.3034646,33.3498693 23.0123034,33.7457301 22.7507038,34.0906023 C22.6588653,34.211675 22.5771912,34.3178366 22.5066033,34.4083692 C22.463816,34.4632462 22.4339634,34.5010515 22.4179676,34.5210663 L22.0352047,35 L21.6485111,34.5242343 C21.6324967,34.504531 21.6026771,34.4673782 21.559971,34.4134602 C21.4895628,34.3245671 21.4081099,34.2202829 21.3165305,34.1012909 C21.0557222,33.7624142 20.7654644,33.3729499 20.4531008,32.9383528 C19.5612691,31.6975312 18.6696081,30.3421189 17.836833,28.9153517 C16.4037538,26.4601026 15.2970509,24.0538958 14.644696,21.7858054 C13.880258,19.1280274 13.7713927,16.7628453 14.4485862,14.7705876 C15.5753019,11.4558653 18.5184027,10 22.0319627,10 Z M22.0319627,10.9882682 C18.8963606,10.9882682 16.3498647,12.2479448 15.3842765,15.0886405 C14.7811859,16.8628929 14.8810363,19.0322215 15.5944593,21.5126316 C16.2212728,23.6919205 17.2952866,26.0270543 18.6903495,28.4171714 C19.5062369,29.8150054 20.381,31.1447312 21.2555925,32.3615675 C21.5334567,32.7481651 21.7931217,33.097841 22.0290581,33.4064371 C22.2674326,33.0903285 22.5300161,32.7321724 22.8111349,32.3364292 C23.6894286,31.1000166 24.5678686,29.7534248 25.3871761,28.3436234 C26.6767407,26.12464 27.6954008,23.9614006 28.3412192,21.9386207 C29.2043346,19.2352407 29.3564624,16.9174119 28.6840941,15.1011629 C27.6243723,12.2385671 25.1234713,10.9882682 22.0319627,10.9882682 Z M22.0082415,14.2693188 C24.1150506,14.2693188 25.8229569,15.9772251 25.8229569,18.0840342 C25.8229569,20.1908434 24.1150506,21.8987496 22.0082415,21.8987496 C19.9014323,21.8987496 18.1935261,20.1908434 18.1935261,18.0840342 C18.1935261,15.9772251 19.9014323,14.2693188 22.0082415,14.2693188 Z M22.0082415,15.2575871 C20.4472378,15.2575871 19.1817943,16.5230306 19.1817943,18.0840342 C19.1817943,19.6450379 20.4472378,20.9104814 22.0082415,20.9104814 C23.5692452,20.9104814 24.8346887,19.6450379 24.8346887,18.0840342 C24.8346887,16.5230306 23.5692452,15.2575871 22.0082415,15.2575871 Z" id="Combined-Shape" fill="#CAFFB9"></path>
                </g>
            </g>
        </g>
    </g>
</svg>