<?xml version="1.0" encoding="UTF-8"?>
<svg width="16px" height="18px" viewBox="0 0 16 18" version="1.1" xmlns="http://www.w3.org/2000/svg" xmlns:xlink="http://www.w3.org/1999/xlink">
    <title>6CAB5D15-816C-49A4-885E-92D7702840D6@2x</title>
    <defs>
        <linearGradient x1="50%" y1="0%" x2="50%" y2="100%" id="linearGradient-1">
            <stop stop-color="#83DD9D" offset="0%"></stop>
            <stop stop-color="#4CB964" offset="100%"></stop>
        </linearGradient>
    </defs>
    <g id="Mobile" stroke="none" stroke-width="1" fill="none" fill-rule="evenodd">
        <g id="Menu" transform="translate(-233.000000, -417.000000)" fill="url(#linearGradient-1)" fill-rule="nonzero">
            <g id="Active-Menu" transform="translate(0.000000, 90.000000)">
                <g id="Register-Login" transform="translate(127.000000, 324.000000)">
                    <path d="M116.493473,5.2272861 C116.264357,5.23739542 116.040068,5.15697363 115.874667,5.00476445 C115.703314,4.85036356 115.601414,4.63354976 115.591252,4.40323735 C115.581143,4.1741215 115.661565,3.94983219 115.813774,3.7844315 C115.968175,3.61307842 116.184988,3.51117787 116.415303,3.5010167 C116.454388,3.49949793 116.454388,3.49949793 116.471433,3.50053262 L120.834913,3.50053262 C121.312044,3.50053262 121.698537,3.88702152 121.698537,4.364156 L121.698537,19.6363379 C121.698537,20.1134683 121.312048,20.5000001 120.834913,20.5000001 L116.478729,20.5000001 C116.248003,20.5032752 116.025692,20.4141731 115.857239,20.2491194 C115.694712,20.0865974 115.602837,19.8664475 115.602837,19.6363342 C115.602837,19.4062224 115.694711,19.1860765 115.860892,19.0199335 C116.025687,18.8584961 116.248003,18.7693924 116.471433,18.7727072 L119.97129,18.7727072 L119.97129,5.22771101 L116.493473,5.2272861 Z M112.259481,8.6418215 C111.995458,8.40805534 111.899678,8.0378018 112.018274,7.70237415 C112.137843,7.37056825 112.4465,7.14492567 112.799164,7.13149083 C113.028209,7.1230139 113.250213,7.2051544 113.417516,7.35907881 L117.77895,11.3570701 C117.959462,11.5207093 118.063159,11.7532432 118.063159,11.9973943 C118.063159,12.241544 117.959464,12.4740738 117.780997,12.6358526 L113.416366,16.6367604 C113.246124,16.7918428 113.021229,16.8727692 112.79484,16.8611033 C112.564294,16.8509305 112.34765,16.7488743 112.192599,16.576971 C112.039354,16.406895 111.95918,16.1828522 111.971171,15.9501409 C111.984562,15.7225104 112.086842,15.5086525 112.253236,15.3587561 L114.975858,12.8637832 L107.40528,12.8632809 C106.93884,12.8859145 106.523563,12.5074089 106.500957,12.0415326 C106.478323,11.5750907 106.856832,11.159807 107.346938,11.1366217 L114.977272,11.1366217 L112.259481,8.6418215 Z" id="icon-login"></path>
                </g>
            </g>
        </g>
    </g>
</svg>