<?xml version="1.0" encoding="UTF-8"?>
<svg width="45px" height="45px" viewBox="0 0 45 45" version="1.1" xmlns="http://www.w3.org/2000/svg" xmlns:xlink="http://www.w3.org/1999/xlink">
    <title>0AEC9440-EFD2-4929-BE82-D92942BF56DD@2x</title>
    <g id="Desktop" stroke="none" stroke-width="1" fill="none" fill-rule="evenodd">
        <g id="Desktop---Home" transform="translate(-434.000000, -737.000000)" fill-rule="nonzero">
            <g id="Intro" transform="translate(134.000000, 94.000000)">
                <g id="Content" transform="translate(0.000000, 90.000000)">
                    <g id="Value-Points" transform="translate(0.000000, 394.000000)">
                        <g id="icon-medium-realestate" transform="translate(300.000000, 159.000000)">
                            <circle id="Oval" fill="#4D9078" cx="22.5" cy="22.5" r="22.5"></circle>
                            <path d="M15.07325,12.099625 L15.07325,10.3125 C15.07325,10.1391594 14.9340906,10 14.76075,10 L12.1814063,10 C12.0080656,10 11.8689063,10.1391594 11.8689063,10.3125 L11.8689063,12.099625 L10.3125,12.099625 C10.1391594,12.099625 10,12.2387844 10,12.412125 L10,14.9511875 C10,15.1245281 10.1391594,15.2636875 10.3125,15.2636875 L11.8689063,15.2636875 L11.8689063,34.6874375 C11.8689063,34.8607781 12.0080656,34.9999375 12.1814063,34.9999375 L14.76075,34.9999375 C14.9340906,34.9999375 15.07325,34.8607781 15.07325,34.6874375 L15.07325,15.2649375 L17.734375,15.2649375 L17.734375,16.7444375 L16.9140625,16.7432169 C16.7407219,16.7432169 16.6015625,16.8823762 16.6015625,17.0557169 L16.6015625,31.9275919 C16.6015625,32.1009325 16.7407219,32.2400919 16.9140625,32.2400919 L32.96875,32.2400919 C33.1420906,32.2400919 33.28125,32.1009325 33.28125,31.9275919 L33.28125,17.0557169 C33.28125,16.8823762 33.1420906,16.7432169 32.96875,16.7432169 L31.9287187,16.7432169 L31.9287187,15.2637169 L33.4179688,15.2649375 C34.2895625,15.2649375 35,14.5545 35,13.6829062 C35,12.8100937 34.2895625,12.0996562 33.4179688,12.0996562 L15.07325,12.099625 Z M12.74,10.87 L14.19,10.87 L14.19,11.87 L12.74,11.87 L12.74,10.87 Z M14.19,34.12 L12.74,34.12 L12.74,15.51 L14.19,15.51 L14.19,34.12 Z M32.41,31.37 L17.48,31.37 L17.48,17.62 L32.41,17.62 L32.41,31.37 Z M31.058798,16.743125 L18.61,16.743125 L18.61,15.263625 L31.06,15.263625 L31.06,16.743125 L31.058798,16.743125 Z M33.1831229,14.39 L10.87,14.39 L10.87,12.98 L33.1831229,12.98 C33.6993613,12.98 34.12,13.2965306 34.12,13.685 C34.12,14.0734694 33.6993613,14.39 33.1831229,14.39 Z" id="Shape" fill="#CAFFB9"></path>
                        </g>
                    </g>
                </g>
            </g>
        </g>
    </g>
</svg>