<?xml version="1.0" encoding="UTF-8"?>
<svg width="70px" height="70px" viewBox="0 0 70 70" version="1.1" xmlns="http://www.w3.org/2000/svg" xmlns:xlink="http://www.w3.org/1999/xlink">
    <title>6B34A1E6-D644-42B8-A7D7-D84A0F399E57@2x</title>
    <g id="Desktop" stroke="none" stroke-width="1" fill="none" fill-rule="evenodd">
        <g id="Desktop---Home" transform="translate(-135.000000, -1094.000000)" fill-rule="nonzero">
            <g id="How-it-Works" transform="translate(135.000000, 1034.000000)">
                <g id="icon-large-package" transform="translate(0.000000, 60.000000)">
                    <circle id="icon" fill="#4D9078" cx="35" cy="35" r="35"></circle>
                    <path d="M34.778383,20.0026185 C34.8699561,20.0095803 34.9607239,20.0304239 35.0474785,20.0651486 L35.0474785,20.0651486 L48.6346129,25.5035827 C48.7714718,25.5583624 48.8915002,25.6449345 48.9858346,25.7544357 C49.4033347,25.8339923 49.7200952,26.2086346 49.7200952,26.6587783 L49.7200952,26.6587783 L49.7200952,43.4885535 C49.7200952,43.8644914 49.4959838,44.2026153 49.1540698,44.3425339 L49.1540698,44.3425339 L35.4906509,49.9338999 C35.3839515,49.9775636 35.2700539,50 35.1550957,50 C34.9923898,50 34.8397504,49.9560155 34.7079718,49.8790623 C34.5771845,49.9560023 34.4245726,50 34.2618961,50 C34.1447107,50 34.0286495,49.9766706 33.9202092,49.9313176 L33.9202092,49.9313176 L20.5597309,44.343568 C20.2211573,44.2019664 20,43.8654583 20,43.4918936 L20,43.4918936 L20,26.6590545 C20,26.4412121 20.0741267,26.2410466 20.1980314,26.0834183 L20.215,26.063 L20.2336245,26.0105338 C20.3106859,25.8177535 20.4508173,25.6583356 20.6292624,25.5570365 L20.740729,25.5034293 L34.3457653,20.0649952 C34.4325357,20.0303099 34.523313,20.0095075 34.6148892,20.0025873 Z M48.507,27.243 L35.466,32.463 L35.4665802,48.4836686 L48.5070301,43.1338956 L48.507,27.243 Z M21.213,27.382 L21.2130651,43.1408746 L33.9502488,48.4836686 L33.95,32.463 L27.488,29.88 L27.4766031,29.8856136 L21.213,27.382 Z M41.897,24.113 L29.273,29.166 L34.603583,31.3951298 C34.6412023,31.4108633 34.677372,31.429003 34.7119498,31.4493325 L34.8195405,31.3961639 L47.315,26.282 L41.897,24.113 Z M34.696,21.241 L22.236,26.222 L27.678,28.498 L40.2521506,23.4653982 L34.696,21.241 Z" id="Combined-Shape" fill="#CAFFB9"></path>
                </g>
            </g>
        </g>
    </g>
</svg>