<?xml version="1.0" encoding="UTF-8"?>
<svg width="45px" height="45px" viewBox="0 0 45 45" version="1.1" xmlns="http://www.w3.org/2000/svg" xmlns:xlink="http://www.w3.org/1999/xlink">
    <title>E6656FF4-8D5B-4156-9988-5B8D074E8257@2x</title>
    <g id="Desktop" stroke="none" stroke-width="1" fill="none" fill-rule="evenodd">
        <g id="Desktop---Home" transform="translate(-836.000000, -1784.000000)" fill-rule="nonzero">
            <g id="Benefits" transform="translate(0.000000, 1571.000000)">
                <g id="icon-medium-safe" transform="translate(836.000000, 213.000000)">
                    <circle id="Oval" fill="#2E4057" cx="22.5" cy="22.5" r="22.5"></circle>
                    <path d="M35,33.75 C35,34.4403559 34.4403559,35 33.75,35 L11.25,35 C10.5596441,35 10,34.4403559 10,33.75 L10,11.25 C10,10.5596441 10.5596441,10 11.25,10 L33.75,10 C34.4403559,10 35,10.5596441 35,11.25 L35,33.75 Z M33.75,11 L11.25,11 C11.1119288,11 11,11.1119288 11,11.25 L11,33.75 C11,33.8880712 11.1119288,34 11.25,34 L33.75,34 C33.8880712,34 34,33.8880712 34,33.75 L34,30.25 L32.5,30.25 L32.5,32.5 L12.5,32.5 L12.5,12.5 L32.5,12.5 L32.5,14.25 L34,14.25 L34,11.25 C34,11.1119288 33.8880712,11 33.75,11 Z M31.5,13.5 L13.5,13.5 L13.5,31.5 L31.5,31.5 L31.5,29.25 L34,29.25 L34,15.25 L31.5,15.25 L31.5,13.5 Z M22.5200176,17.9348556 C25.0912912,17.9348556 27.1736928,20.0380811 27.1736928,22.6300675 C27.1736928,25.2220538 25.0912912,27.3252793 22.5200176,27.3252793 C19.948744,27.3252793 17.8663425,25.2220538 17.8663425,22.6300675 C17.8663425,20.0380811 19.948744,17.9348556 22.5200176,17.9348556 Z M22.66,23.482 L20.4730982,25.6913355 C21.0571649,26.0915579 21.761744,26.3252793 22.5200176,26.3252793 C23.3501555,26.3252793 24.1159389,26.0451575 24.729695,25.5731147 L22.66,23.482 Z M18.8663425,22.6300675 C18.8663425,23.5406269 19.1918564,24.3739062 19.7314082,25.0177581 L21.956,22.771 L19.6071627,20.3990397 C19.142285,21.0188501 18.8663425,21.7917031 18.8663425,22.6300675 Z M25.5498225,20.5641744 L23.363,22.771 L25.4328725,24.8610952 C25.8977503,24.2412848 26.1736928,23.4684318 26.1736928,22.6300675 C26.1736928,21.8646177 25.9436618,21.1537796 25.5498225,20.5641744 Z M22.5200176,18.9348556 C21.6898798,18.9348556 20.9240964,19.2149774 20.3103403,19.6870202 L22.66,22.061 L24.8855296,19.8137956 C24.2479675,19.2655463 23.4219785,18.9348556 22.5200176,18.9348556 Z" id="Combined-Shape" fill="#CAFFB9"></path>
                </g>
            </g>
        </g>
    </g>
</svg>